# xmcd
#
# Track frame offsets:
#	150
#	18864
#	40090
#	60046
#	79771
#	95480
#	113384
#	133022
#	154136
#	172662
#	193831
#	220140
#	248881
#	271906
#
# Disc length: 3941 seconds
#
# Revision: 1
# Processed by: cddbd v1.5.2PL0 Copyright (c) Steve Scherf et al.
# Submitted via: EZCDAudioConverter 8.0.2.1
#
DISCID=a70f630e
DTITLE=Various Artist - Top Hits 29. Tình Mộng
DYEAR=2006
DGENRE=Contemporary Pop
TTITLE0=Ngọc Liên - Tình Mộng
TTITLE1=Bằng Kiều - Dáng em
TTITLE2=Angela Trâm Anh - Không cần nói
TTITLE3=Hồ lệ Thu - Người cho em biết cô đơn
TTITLE4=Hollie Thanh Ngọc - My Philosophy
TTITLE5=Lưu Bích - Rồi ánh trăng tàn
TTITLE6=Minh Tuyết - Đừng xa em nhé
TTITLE7=Lương Tùng Quang, Như Loan - Đêm chia tay
TTITLE8=Dương Triệu Vũ, Vân Quỳnh - Dĩ vãng êm đềm
TTITLE9=Nguyễn Hưng - Ghen
TTITLE10=Tốp Ca - Những ngày nắng đẹp/Season In The Sun
TTITLE11=Thế Sơn, Thanh Hà - LK Chiều mưa kỷ niệm, Rồi mai tôi đưa em
TTITLE12=Khánh Hà - Khi...
TTITLE13=Trần Thu Hà, Bằng Kiều - LK Tình khúc tháng sáu, Đường xa ướt mưa
EXTD=
EXTT0=
EXTT1=
EXTT2=
EXTT3=
EXTT4=
EXTT5=
EXTT6=
EXTT7=
EXTT8=
EXTT9=
EXTT10=
EXTT11=
EXTT12=
EXTT13=
PLAYORDER=
